<svg xmlns="http://www.w3.org/2000/svg" width="260" height="67.93" viewBox="0 0 260 67.93">
  <g id="Group_1405" data-name="Group 1405" transform="translate(-1624 -156)">
    <rect id="Rectangle_4364" data-name="Rectangle 4364" width="5.887" height="10.829" transform="translate(1624 213.1)" fill="#fff" opacity="0.2"/>
    <rect id="Rectangle_4364-2" data-name="Rectangle 4364" width="4.906" height="16.244" transform="translate(1632.83 207.686)" fill="#fff" opacity="0.2"/>
    <rect id="Rectangle_4364-3" data-name="Rectangle 4364" width="5.887" height="10.829" transform="translate(1640.679 213.1)" fill="#fff" opacity="0.2"/>
    <rect id="Rectangle_4364-4" data-name="Rectangle 4364" width="5.887" height="22.209" transform="translate(1649.509 201.72)" fill="#fff" opacity="0.2"/>
    <rect id="Rectangle_4364-5" data-name="Rectangle 4364" width="4.906" height="48.457" transform="translate(1658.34 175.473)" fill="#fff" opacity="0.2"/>
    <rect id="Rectangle_4364-6" data-name="Rectangle 4364" width="5.887" height="59.561" transform="translate(1666.189 164.368)" fill="#fff" opacity="0.2"/>
    <rect id="Rectangle_4364-7" data-name="Rectangle 4364" width="5.887" height="33.314" transform="translate(1675.019 190.616)" fill="#fff" opacity="0.2"/>
    <rect id="Rectangle_4364-8" data-name="Rectangle 4364" width="4.906" height="9.086" transform="translate(1683.849 214.844)" fill="#fff" opacity="0.2"/>
    <rect id="Rectangle_4364-9" data-name="Rectangle 4364" width="5.887" height="49.717" transform="translate(1691.698 174.213)" fill="#fff" opacity="0.2"/>
    <rect id="Rectangle_4364-10" data-name="Rectangle 4364" width="5.887" height="41.841" transform="translate(1700.528 182.089)" fill="#fff" opacity="0.2"/>
    <rect id="Rectangle_4364-11" data-name="Rectangle 4364" width="5.887" height="58.085" transform="translate(1708.377 165.845)" fill="#fff" opacity="0.2"/>
    <rect id="Rectangle_4364-12" data-name="Rectangle 4364" width="5.887" height="24.612" transform="translate(1717.208 199.317)" fill="#fff" opacity="0.2"/>
    <rect id="Rectangle_4364-13" data-name="Rectangle 4364" width="4.906" height="30.675" transform="translate(1726.038 193.254)" fill="#fff" opacity="0.2"/>
    <rect id="Rectangle_4364-14" data-name="Rectangle 4364" width="5.887" height="56.631" transform="translate(1733.887 167.298)" fill="#fff" opacity="0.2"/>
    <rect id="Rectangle_4364-15" data-name="Rectangle 4364" width="5.887" height="18.705" transform="translate(1742.717 205.224)" fill="#fff" opacity="0.2"/>
    <rect id="Rectangle_4364-16" data-name="Rectangle 4364" width="4.906" height="10.829" transform="translate(1751.547 213.1)" fill="#fff" opacity="0.2"/>
    <rect id="Rectangle_4364-17" data-name="Rectangle 4364" width="5.887" height="10.829" transform="translate(1759.396 213.1)" fill="#fff" opacity="0.2"/>
    <rect id="Rectangle_4364-18" data-name="Rectangle 4364" width="5.887" height="33.965" transform="translate(1768.227 189.965)" fill="#fff" opacity="0.2"/>
    <rect id="Rectangle_4364-19" data-name="Rectangle 4364" width="4.906" height="47.255" transform="translate(1777.057 176.674)" fill="#fff" opacity="0.2"/>
    <rect id="Rectangle_4364-20" data-name="Rectangle 4364" width="5.887" height="22.643" transform="translate(1784.906 201.286)" fill="#fff" opacity="0.2"/>
    <rect id="Rectangle_4364-21" data-name="Rectangle 4364" width="5.887" height="58.085" transform="translate(1793.736 165.845)" fill="#fff" opacity="0.2"/>
    <rect id="Rectangle_4364-22" data-name="Rectangle 4364" width="4.906" height="63.992" transform="translate(1802.566 159.938)" fill="#fff" opacity="0.2"/>
    <rect id="Rectangle_4364-23" data-name="Rectangle 4364" width="5.887" height="63.992" transform="translate(1810.415 159.938)" fill="#fff" opacity="0.2"/>
    <rect id="Rectangle_4364-24" data-name="Rectangle 4364" width="5.887" height="67.437" transform="translate(1819.245 156.492)" fill="#fff" opacity="0.2"/>
    <rect id="Rectangle_4364-25" data-name="Rectangle 4364" width="5.887" height="59.562" transform="translate(1827.095 164.368)" fill="#fff" opacity="0.2"/>
    <rect id="Rectangle_4364-26" data-name="Rectangle 4364" width="5.887" height="42.511" transform="translate(1835.925 181.418)" fill="#fff" opacity="0.2"/>
    <rect id="Rectangle_4364-27" data-name="Rectangle 4364" width="4.906" height="63.007" transform="translate(1844.755 160.922)" fill="#fff" opacity="0.2"/>
    <rect id="Rectangle_4364-28" data-name="Rectangle 4364" width="5.887" height="49.717" transform="translate(1852.604 174.213)" fill="#fff" opacity="0.2"/>
    <rect id="Rectangle_4364-29" data-name="Rectangle 4364" width="5.887" height="67.93" transform="translate(1861.434 156)" fill="#fff" opacity="0.2"/>
    <rect id="Rectangle_4364-30" data-name="Rectangle 4364" width="4.906" height="43.592" transform="translate(1870.265 180.338)" fill="#fff" opacity="0.2"/>
    <rect id="Rectangle_4364-31" data-name="Rectangle 4364" width="5.887" height="63.992" transform="translate(1878.113 159.938)" fill="#fff" opacity="0.2"/>
  </g>
</svg>
