<svg xmlns="http://www.w3.org/2000/svg" width="260" height="77.708" viewBox="0 0 260 77.708">
  <g id="Group_1409" data-name="Group 1409" transform="translate(-1624 -146.221)">
    <rect id="Rectangle_4364" data-name="Rectangle 4364" width="5.887" height="28.262" transform="translate(1624 195.667)" fill="#fff" opacity="0.2"/>
    <rect id="Rectangle_4364-2" data-name="Rectangle 4364" width="4.906" height="42.393" transform="translate(1632.83 181.536)" fill="#fff" opacity="0.2"/>
    <rect id="Rectangle_4364-3" data-name="Rectangle 4364" width="5.887" height="28.262" transform="translate(1640.679 195.667)" fill="#fff" opacity="0.2"/>
    <rect id="Rectangle_4364-4" data-name="Rectangle 4364" width="5.887" height="28.262" transform="translate(1649.51 195.667)" fill="#fff" opacity="0.2"/>
    <rect id="Rectangle_4364-5" data-name="Rectangle 4364" width="4.906" height="61.663" transform="translate(1658.34 162.267)" fill="#fff" opacity="0.2"/>
    <rect id="Rectangle_4364-6" data-name="Rectangle 4364" width="5.887" height="75.794" transform="translate(1666.188 148.135)" fill="#fff" opacity="0.2"/>
    <rect id="Rectangle_4364-7" data-name="Rectangle 4364" width="5.887" height="16.244" transform="translate(1675.019 207.686)" fill="#fff" opacity="0.2"/>
    <rect id="Rectangle_4364-8" data-name="Rectangle 4364" width="4.906" height="4.43" transform="translate(1683.849 219.499)" fill="#fff" opacity="0.2"/>
    <rect id="Rectangle_4364-9" data-name="Rectangle 4364" width="5.887" height="49.717" transform="translate(1691.698 174.213)" fill="#fff" opacity="0.2"/>
    <rect id="Rectangle_4364-10" data-name="Rectangle 4364" width="5.887" height="41.841" transform="translate(1700.528 182.089)" fill="#fff" opacity="0.2"/>
    <rect id="Rectangle_4364-11" data-name="Rectangle 4364" width="5.887" height="58.085" transform="translate(1708.377 165.845)" fill="#fff" opacity="0.2"/>
    <rect id="Rectangle_4364-12" data-name="Rectangle 4364" width="5.887" height="24.612" transform="translate(1717.207 199.317)" fill="#fff" opacity="0.2"/>
    <rect id="Rectangle_4364-13" data-name="Rectangle 4364" width="4.906" height="26.584" transform="translate(1726.038 197.345)" fill="#fff" opacity="0.2"/>
    <rect id="Rectangle_4364-14" data-name="Rectangle 4364" width="5.887" height="49.079" transform="translate(1733.887 174.851)" fill="#fff" opacity="0.2"/>
    <rect id="Rectangle_4364-15" data-name="Rectangle 4364" width="5.887" height="77.708" transform="translate(1742.717 146.221)" fill="#fff" opacity="0.2"/>
    <rect id="Rectangle_4364-16" data-name="Rectangle 4364" width="4.906" height="44.989" transform="translate(1751.547 178.941)" fill="#fff" opacity="0.2"/>
    <rect id="Rectangle_4364-17" data-name="Rectangle 4364" width="5.887" height="44.989" transform="translate(1759.396 178.941)" fill="#fff" opacity="0.2"/>
    <rect id="Rectangle_4364-18" data-name="Rectangle 4364" width="5.887" height="33.965" transform="translate(1768.226 189.965)" fill="#fff" opacity="0.2"/>
    <rect id="Rectangle_4364-19" data-name="Rectangle 4364" width="4.906" height="47.255" transform="translate(1777.056 176.674)" fill="#fff" opacity="0.2"/>
    <rect id="Rectangle_4364-20" data-name="Rectangle 4364" width="5.887" height="22.643" transform="translate(1784.906 201.286)" fill="#fff" opacity="0.2"/>
    <rect id="Rectangle_4364-21" data-name="Rectangle 4364" width="5.887" height="58.085" transform="translate(1793.736 165.845)" fill="#fff" opacity="0.2"/>
    <rect id="Rectangle_4364-22" data-name="Rectangle 4364" width="4.906" height="63.992" transform="translate(1802.566 159.938)" fill="#fff" opacity="0.2"/>
    <rect id="Rectangle_4364-23" data-name="Rectangle 4364" width="5.887" height="63.992" transform="translate(1810.415 159.938)" fill="#fff" opacity="0.2"/>
    <rect id="Rectangle_4364-24" data-name="Rectangle 4364" width="5.887" height="22.643" transform="translate(1819.245 201.286)" fill="#fff" opacity="0.2"/>
    <rect id="Rectangle_4364-25" data-name="Rectangle 4364" width="5.887" height="19.999" transform="translate(1827.094 203.931)" fill="#fff" opacity="0.2"/>
    <rect id="Rectangle_4364-26" data-name="Rectangle 4364" width="5.887" height="19.503" transform="translate(1835.924 204.427)" fill="#fff" opacity="0.2"/>
    <rect id="Rectangle_4364-27" data-name="Rectangle 4364" width="4.906" height="21.156" transform="translate(1844.754 202.774)" fill="#fff" opacity="0.2"/>
    <rect id="Rectangle_4364-28" data-name="Rectangle 4364" width="5.887" height="39.93" transform="translate(1852.604 184)" fill="#fff" opacity="0.2"/>
    <rect id="Rectangle_4364-29" data-name="Rectangle 4364" width="5.887" height="52.93" transform="translate(1861.434 171)" fill="#fff" opacity="0.2"/>
    <rect id="Rectangle_4364-30" data-name="Rectangle 4364" width="4.906" height="59.562" transform="translate(1870.264 164.368)" fill="#fff" opacity="0.2"/>
    <rect id="Rectangle_4364-31" data-name="Rectangle 4364" width="5.887" height="63.992" transform="translate(1878.113 159.938)" fill="#fff" opacity="0.2"/>
  </g>
</svg>
