<svg xmlns="http://www.w3.org/2000/svg" width="177.031" height="51.556" viewBox="0 0 177.031 51.556">
  <g id="Group_24" data-name="Group 24" transform="translate(-622.559 -74.222)">
    <g id="Group_23" data-name="Group 23" transform="translate(622.559 74.222)">
      <g id="Group_22" data-name="Group 22" transform="translate(25.458 36.48)">
        <path id="Path_51" data-name="Path 51" d="M657.325,109.428c-.62-1.4-2.539-1.98-4.062-2-2.19,0-5.114.645-5.2,3.21-.056,1.585,1.827,2.044,4.023,2.481,2.693.543,5.507,1.231,4.854,4.38-.72,3.3-4.079,3.9-6.52,3.9-2.274,0-4.786-.937-5.439-3.169l1.018-.5c.541,1.835,2.7,2.607,4.52,2.607,1.794,0,4.752-.459,5.3-3.045.471-2.126-1.844-2.731-4.144-3.19-2.32-.48-4.577-.961-4.693-3.024-.19-2.919,2.625-4.671,6.318-4.671,2.17,0,4.187.835,4.878,2.5Z" transform="translate(-644.979 -106.342)" fill="#f26521"/>
        <path id="Path_52" data-name="Path 52" d="M671.363,107.553h-5.278l.223-1h11.684l-.224,1H672.49l-2.853,13.594H668.51Z" transform="translate(-642.119 -106.322)" fill="#f26521"/>
        <path id="Path_53" data-name="Path 53" d="M698.573,113.9a8.991,8.991,0,0,1-8.942,7.527c-4.507,0-6.072-3-5.957-6.3a8.992,8.992,0,0,1,9.133-8.78C697.73,106.349,699.254,109.936,698.573,113.9Zm-13.711,2.481c.319,2.21,1.759,4,4.972,4a7.925,7.925,0,0,0,7.819-7.632c.154-3.233-1.441-5.36-5.071-5.36A7.84,7.84,0,0,0,684.861,116.379Z" transform="translate(-639.736 -106.349)" fill="#f26521"/>
        <path id="Path_54" data-name="Path 54" d="M717.726,121.147h-1.419l-3.833-5.525h-4.09l-1.173,5.525h-1.126l3.076-14.6h6.426c2.984,0,4.079,2.086,3.8,4.212-.34,2.565-2,4.775-5.633,4.8Zm-9.118-6.588h5.175a4.216,4.216,0,0,0,4.461-3.483c.372-1.709-.316-3.5-2.862-3.5h-5.3Z" transform="translate(-636.699 -106.322)" fill="#f26521"/>
        <path id="Path_55" data-name="Path 55" d="M729.491,113.286h8.554l-.2,1.023h-8.555l-1.223,5.755h9.223l-.226,1.083H726.733l3.076-14.6h10.078l-.225,1.044H730.69Z" transform="translate(-633.901 -106.322)" fill="#f26521"/>
      </g>
      <path id="Path_56" data-name="Path 56" d="M645.2,89.9a6.4,6.4,0,0,0,4.038-2.767,8.349,8.349,0,0,0,1.451-4.673,6.588,6.588,0,0,0-2.177-5.08,7.869,7.869,0,0,0-5.625-2.042H629l-1.423,6.986h0l7.457,5.625,1.134-5.625h3.675a2.372,2.372,0,0,1,2.586,2.449,3.214,3.214,0,0,1-3.175,3.176H626.432l-1.2,5.9L624,99.884l-1.442,7.076h17.33a9.545,9.545,0,0,0,7.44-3.085,10.744,10.744,0,0,0,2.813-7.394A6.324,6.324,0,0,0,645.2,89.9Zm-6.805,9.981h-5.76l1.224-6.034h5.081a2.613,2.613,0,0,1,2.858,2.631A3.4,3.4,0,0,1,638.391,99.884Z" transform="translate(-622.559 -74.07)" fill="#f26521"/>
      <path id="Path_57" data-name="Path 57" d="M689.2,93.574a4.612,4.612,0,0,0,3.283,1.2,5.524,5.524,0,0,0,5.446-5.319,4.18,4.18,0,0,0-1.273-3.131,4.412,4.412,0,0,0-3.257-1.247A5.221,5.221,0,0,0,689.58,86.7a5.154,5.154,0,0,0-1.628,3.766A4.065,4.065,0,0,0,689.2,93.574Z" transform="translate(-613.698 -72.752)" fill="#f26521"/>
      <path id="Path_58" data-name="Path 58" d="M648.329,106.96l6.442-31.619h13.292a10.444,10.444,0,0,1,7.622,2.858,9.41,9.41,0,0,1,2.994,7.213A12.627,12.627,0,0,1,666.067,97.8h-7.258l-1.86,9.164ZM660.4,89.994h5.943a3.928,3.928,0,0,0,3.72-3.9,2.922,2.922,0,0,0-3.085-2.949H661.8Z" transform="translate(-619.067 -74.07)" fill="#040505"/>
      <path id="Path_59" data-name="Path 59" d="M679.179,84.15a18.841,18.841,0,0,1,6.941-6.668,19.2,19.2,0,0,1,9.662-2.541,17.035,17.035,0,0,1,11.794,4.174A13.513,13.513,0,0,1,712.25,89.73a17.207,17.207,0,0,1-5.445,12.521,18.6,18.6,0,0,1-13.609,5.4,17.245,17.245,0,0,1-11.887-4.128,13.625,13.625,0,0,1-4.627-10.616A16.56,16.56,0,0,1,679.179,84.15ZM687.8,97.806a8.22,8.22,0,0,0,5.852,2.132,9.848,9.848,0,0,0,9.708-9.481,7.448,7.448,0,0,0-2.269-5.58,7.862,7.862,0,0,0-5.807-2.223,9.31,9.31,0,0,0-6.805,2.9,9.187,9.187,0,0,0-2.9,6.714A7.248,7.248,0,0,0,687.8,97.806Z" transform="translate(-615.225 -74.125)" fill="#040505"/>
      <path id="Path_60" data-name="Path 60" d="M708.9,106.96l6.442-31.619h8.62l-6.442,31.619Z" transform="translate(-610.86 -74.07)" fill="#040505"/>
      <path id="Path_61" data-name="Path 61" d="M722.319,107.112l6.714-32.89,16.3,22.8,4.388-21.526h8.256l-8.261,40.467L733.262,94l-2.687,13.111Z" transform="translate(-609.041 -74.222)" fill="#040505"/>
      <path id="Path_62" data-name="Path 62" d="M759.533,95.91l-1.684,8.264h8.62l1.684-8.264Z" transform="translate(-604.227 -71.283)" fill="#f26521"/>
      <path id="Path_63" data-name="Path 63" d="M756.2,75.341l-1.587,7.8h8.529l-2.97,14.571h8.62l2.97-14.571h8.347l1.588-7.8Z" transform="translate(-604.665 -74.07)" fill="#040505"/>
      <g id="Path_64" data-name="Path 64" transform="translate(-613.1 -72.194)" fill="#f26521" stroke-miterlimit="10">
        <path d="M 693.8148803710938 106.0736312866211 C 693.2470703125 106.0736312866211 692.775390625 105.630989074707 692.7410278320313 105.0659255981445 L 692.2981567382813 97.57297515869141 L 691.8382568359375 89.79367065429688 C 691.8204956054688 89.49594879150391 691.9225463867188 89.21316528320313 692.1256103515625 88.99766540527344 C 692.328857421875 88.781982421875 692.6141967773438 88.65827941894531 692.9086303710938 88.65827941894531 C 693.11328125 88.65827941894531 693.313720703125 88.71798706054688 693.4882202148438 88.83095550537109 L 700.0370483398438 93.05451202392578 L 706.3446655273438 97.12069702148438 C 706.71533203125 97.36054229736328 706.8995971679688 97.79454803466797 706.8150024414063 98.22687530517578 C 706.73046875 98.65901947021484 706.3963623046875 98.99137115478516 705.9639282226563 99.07357788085938 L 699.802978515625 100.2353363037109 C 699.3615112304688 100.31884765625 698.9581298828125 100.5543670654297 698.66748046875 100.8984375 L 694.6289672851563 105.6920166015625 C 694.4249877929688 105.934440612793 694.128173828125 106.0736312866211 693.8148803710938 106.0736312866211 Z" stroke="none"/>
        <path d="M 693.8148803710938 105.5417633056641 C 693.961669921875 105.5417633056641 694.110595703125 105.4820022583008 694.2222290039063 105.3493423461914 L 698.2611694335938 100.5552215576172 C 698.6314086914063 100.1169357299805 699.14013671875 99.81942749023438 699.7044067382813 99.71269226074219 L 705.8646240234375 98.55107116699219 C 706.342529296875 98.46022033691406 706.46533203125 97.83229064941406 706.0565185546875 97.56772613525391 L 699.748779296875 93.50148010253906 L 693.1991577148438 89.27742004394531 C 693.1063232421875 89.21730041503906 693.0061645507813 89.19014739990234 692.9086303710938 89.19014739990234 C 692.617431640625 89.19014739990234 692.3495483398438 89.4322509765625 692.3692016601563 89.76227569580078 L 692.8291015625 97.54159545898438 L 693.2719116210938 105.0336608886719 C 693.2909545898438 105.3465423583984 693.5494384765625 105.5417633056641 693.8148803710938 105.5417633056641 M 693.8148803710938 106.6054916381836 C 692.9663696289063 106.6054916381836 692.2615356445313 105.9434051513672 692.2101440429688 105.0981979370117 L 691.7672119140625 97.60436248779297 L 691.3073120117188 89.82505798339844 C 691.2808227539063 89.37974548339844 691.4338989257813 88.95619964599609 691.738525390625 88.63292694091797 C 692.0418090820313 88.31102752685547 692.4683227539063 88.12641143798828 692.9086303710938 88.12641143798828 C 693.2161254882813 88.12641143798828 693.5165405273438 88.21566772460938 693.7772827148438 88.384521484375 L 700.3253173828125 92.60753631591797 L 706.6328735351563 96.67366790771484 C 707.1878051757813 97.03279113769531 707.4635620117188 97.68215179443359 707.3369750976563 98.32902526855469 C 707.21044921875 98.97570037841797 706.71044921875 99.47304534912109 706.0632934570313 99.59607696533203 L 699.9014892578125 100.7579956054688 C 699.5800170898438 100.8188095092773 699.2858276367188 100.9906158447266 699.07373046875 101.2416610717773 L 695.0357055664063 106.0346984863281 C 694.7306518554688 106.3972625732422 694.2855224609375 106.6054916381836 693.8148803710938 106.6054916381836 Z" stroke="none" fill="#fff"/>
      </g>
      <path id="Path_65" data-name="Path 65" d="M638.355,81.493H634.68l-1.134,5.625h4.22a3.214,3.214,0,0,0,3.175-3.176A2.372,2.372,0,0,0,638.355,81.493Z" transform="translate(-621.07 -73.237)" fill="none"/>
      <path id="Path_66" data-name="Path 66" d="M706.023,97.568,699.715,93.5l-6.55-4.223a.529.529,0,0,0-.552-.017l6.223,10.777a2.494,2.494,0,0,1,.835-.325l6.16-1.162A.54.54,0,0,0,706.023,97.568Z" transform="translate(-613.066 -72.194)" fill="#bb3d10"/>
      <path id="Path_67" data-name="Path 67" d="M637.734,91.641h-5.081l-1.224,6.034h5.76a3.4,3.4,0,0,0,3.4-3.4A2.613,2.613,0,0,0,637.734,91.641Z" transform="translate(-621.357 -71.862)" fill="none"/>
      <path id="Path_68" data-name="Path 68" d="M635.57,81.493h-8.591l7.457,5.625Z" transform="translate(-621.96 -73.237)" fill="#bb3d10"/>
    </g>
  </g>
</svg>
